<?xml version="1.0" standalone="no"?>
<!DOCTYPE svg PUBLIC "-//W3C//DTD SVG 20010904//EN"
 "http://www.w3.org/TR/2001/REC-SVG-20010904/DTD/svg10.dtd">
<svg version="1.0" xmlns="http://www.w3.org/2000/svg"
 width="1566.000000pt" height="636.000000pt" viewBox="0 0 1566.000000 636.000000"
 preserveAspectRatio="xMidYMid meet">

<!-- Agregar un rectángulo para el fondo negro -->
<rect width="100%" height="100%" fill="black"/>

<g transform="translate(0.000000,636.000000) scale(0.100000,-0.100000)"
fill="white" stroke="none"> <!-- Cambiar 'fill' a blanco para las letras -->

<path d="M7440 5250 c0 -77 -1 -76 80 -82 l35 -3 3 -107 3 -107 -35 -6 c-19 -4 -102 -5 -185 -3 l-151 3 -28 30 c-39 42 -310 297 -325 307 -6 4 -18 8 -26 8 -20 0 -92 -80 -84 -94 13 -21 375 -371 396 -383 25 -14 999 -19 1253 -6 l138 6 44 41 c143 136 342 338 342 347 0 6 -18 29 -40 51 -45 45 -66 45 -111 -1 -14 -14 -87 -86 -162 -160 -132 -130 -139 -135 -189 -142 -29 -4 -193 -8 -365 -8 -312 -1 -312 -1 -324 21 -9 16 -10 65 -6 168 3 81 3 156 0 168 -5 21 -10 22 -134 22 l-129 0 0 -70z"/>
<!-- Más etiquetas <path> continúan aquí, todas con 'fill="white"' -->
<path d="M7570 4661 c-6 -12 -10 -105 -10 -234 0 -170 3 -217 14 -226 9 -8 74
-11 212 -9 l199 3 0 70 0 70 -135 5 -135 5 0 90 0 90 340 3 c187 1 349 0 360
-2 19 -5 100 -82 290 -278 42 -43 82 -78 90 -78 16 0 94 79 95 95 0 6 -89 101
-198 213 l-197 202 -457 0 c-442 0 -458 -1 -468 -19z"/>
<path d="M6993 3890 c-114 -24 -262 -142 -317 -254 -43 -86 -59 -204 -41 -312
7 -46 20 -96 28 -111 59 -116 105 -171 191 -228 98 -65 116 -70 266 -70 118 0
140 3 175 21 93 49 122 68 149 95 15 16 32 27 36 24 4 -2 10 -29 13 -59 3 -31
8 -60 12 -66 7 -12 82 -14 89 -2 9 15 8 494 -1 501 -4 3 -116 4 -248 1 l-240
-5 -3 -44 c-2 -24 0 -47 5 -52 4 -4 86 -11 181 -15 117 -4 175 -11 178 -18 9
-22 -35 -101 -78 -142 -100 -94 -145 -114 -258 -114 -139 0 -240 53 -313 163
-78 119 -78 295 0 414 98 149 329 205 481 116 57 -33 142 -112 142 -133 0 -9
5 -21 12 -28 13 -13 124 -17 131 -4 9 14 -24 94 -57 136 -50 66 -104 110 -185
152 -72 37 -77 38 -190 40 -64 2 -135 -1 -158 -6z"/>
<path d="M8194 3886 c-3 -7 2 -30 10 -51 9 -21 16 -44 16 -51 0 -7 14 -44 31
-81 17 -38 40 -93 51 -123 11 -30 28 -73 38 -95 10 -22 22 -51 26 -65 4 -14
17 -47 30 -74 13 -28 24 -54 24 -59 0 -5 18 -49 40 -98 22 -49 40 -95 40 -102
0 -6 14 -39 30 -72 16 -33 30 -66 30 -72 0 -16 37 -25 86 -21 38 3 39 4 38 40
-1 20 -15 66 -33 102 -17 35 -31 72 -31 80 0 9 -13 44 -29 78 -32 70 -61 141
-98 238 -13 36 -31 79 -38 95 -21 48 -65 156 -82 205 -9 25 -20 57 -25 71 -18
51 -44 69 -99 69 -33 0 -51 -5 -55 -14z"/>
<path d="M8884 3885 c-4 -9 14 -45 44 -88 27 -39 60 -88 73 -107 13 -19 36
-51 52 -71 15 -20 27 -40 27 -46 0 -5 15 -27 33 -49 18 -21 39 -49 47 -60 8
-12 35 -50 60 -84 25 -34 56 -79 70 -100 48 -72 152 -222 165 -238 8 -10 29
-39 48 -67 l34 -50 65 -3 c77 -3 91 11 55 55 -28 34 -132 188 -170 251 -16 26
-37 56 -47 67 -10 11 -25 34 -34 50 -9 17 -35 55 -57 85 -22 30 -65 91 -95
135 -30 44 -71 103 -92 131 -20 29 -52 74 -71 100 -66 96 -78 104 -143 104
-43 0 -60 -4 -64 -15z"/>
<path d="M10247 3891 c-123 -26 -269 -148 -333 -279 l-37 -77 0 -130 c0 -129
0 -131 36 -205 50 -102 140 -193 243 -245 l77 -38 146 -1 146 0 74 40 c41 21
98 60 127 86 52 49 131 167 134 203 4 42 1 45 -54 45 -48 0 -56 -3 -71 -27
-72 -114 -155 -186 -241 -211 -58 -17 -176 -15 -240 4 -70 20 -127 64 -186
143 -54 72 -65 121 -55 258 6 87 26 130 96 207 113 123 327 150 469 59 64 -40
93 -70 139 -140 l34 -53 54 0 c53 0 55 1 55 28 0 43 -83 174 -139 221 -27 23
-82 58 -123 78 -71 36 -77 37 -193 39 -66 2 -137 -1 -158 -5z"/>
<path d="M3837 3883 c-10 -9 -8 -935 1 -951 7 -9 90 -12 383 -10 l374 3 3 54
c2 37 -1 57 -10 62 -7 5 -139 6 -294 2 -154 -3 -293 -3 -307 1 l-27 6 0 354
c0 313 2 355 16 360 9 3 150 6 314 6 326 0 310 -3 310 60 0 64 24 60 -384 60
-205 0 -376 -3 -379 -7z"/>
<path d="M4813 3878 c-13 -20 -16 -914 -3 -938 11 -20 19 -20 353 -18 l342 3
3 54 c2 37 -1 57 -10 62 -7 5 -136 9 -285 9 l-273 0 0 404 c0 222 -3 411 -6
420 -8 20 -108 23 -121 4z"/>
<path d="M5676 3874 c-3 -8 -6 -219 -6 -468 0 -346 3 -456 13 -469 11 -16 43
-17 382 -15 l370 3 3 58 3 57 -305 0 c-167 0 -311 3 -320 6 -14 5 -16 47 -16
360 0 195 1 355 3 356 1 1 144 5 317 8 l315 5 0 55 0 55 -376 3 c-337 2 -377
1 -383 -14z"/>
<path d="M9537 3883 c-12 -11 -8 -549 4 -580 9 -24 29 -55 91 -136 9 -12 18
-20 21 -17 8 8 20 676 12 709 -6 30 -8 31 -64 31 -32 0 -61 -3 -64 -7z"/>
<path d="M11085 3878 c-3 -7 -4 -224 -3 -483 l3 -470 369 -3 c264 -2 373 1
382 9 8 7 14 31 14 60 l0 49 -308 0 c-233 0 -312 3 -325 13 -16 11 -18 40 -15
355 3 292 5 344 18 352 9 6 140 10 306 10 327 0 317 -2 312 72 l-3 43 -373 3
c-293 2 -374 0 -377 -10z"/>
<path d="M8882 3318 l3 -393 55 0 55 0 2 320 2 320 -47 69 c-26 38 -53 71 -60
74 -10 3 -12 -77 -10 -390z"/>
<path d="M8058 3583 c-9 -2 -21 -18 -28 -36 -7 -18 -25 -62 -41 -98 -16 -36
-29 -71 -29 -77 0 -6 -13 -38 -30 -70 -16 -33 -30 -67 -30 -75 0 -9 -8 -31
-18 -49 -28 -49 -84 -199 -86 -228 -1 -23 2 -25 53 -28 63 -4 82 9 101 71 7
23 25 70 41 105 16 35 29 67 29 72 0 5 12 35 26 67 15 31 35 82 45 112 11 30
26 65 33 77 20 30 49 132 42 150 -5 14 -67 18 -108 7z"/>
<path d="M4122 3481 c-9 -5 -12 -25 -10 -62 l3 -54 190 0 190 0 0 53 c-1 35
-6 56 -15 62 -19 12 -340 13 -358 1z"/>
<path d="M11397 3482 l-38 -3 3 -57 3 -57 179 -3 c137 -2 181 1 188 10 4 7 8
32 8 55 0 32 -5 45 -20 53 -18 9 -217 11 -323 2z"/>
<path d="M5962 3423 l3 -58 187 -3 188 -2 6 25 c3 14 3 41 0 60 l-7 35 -190 0
-190 0 3 -57z"/>
<path d="M4725 2689 c-12 -19 8 -28 70 -31 l60 -3 5 -160 c4 -133 8 -160 20
-160 12 0 16 26 20 150 3 83 9 156 13 163 5 7 29 12 58 12 43 0 50 3 47 18 -3
15 -19 17 -145 20 -96 2 -144 -1 -148 -9z"/>
<path d="M5182 2688 c-18 -18 -17 -324 2 -331 30 -12 36 16 36 160 0 129 2
143 18 144 102 4 168 -4 187 -22 20 -19 20 -19 0 -56 -15 -28 -30 -40 -59 -48
-22 -7 -42 -17 -44 -24 -4 -12 61 -113 101 -158 21 -24 57 -31 57 -12 0 12
-46 80 -79 118 -26 29 -23 42 12 59 36 18 67 60 67 92 0 31 -31 63 -79 79 -46
15 -203 15 -219 -1z"/>
<path d="M5802 2688 c-5 -7 -44 -79 -86 -160 -70 -135 -91 -198 -67 -198 14 0
49 53 75 113 49 115 99 217 107 217 4 0 13 -17 20 -37 32 -100 126 -293 143
-293 30 0 26 21 -22 122 -26 57 -59 127 -72 155 -37 82 -72 112 -98 81z"/>
<path d="M6199 2684 c-11 -13 -14 -53 -14 -183 l0 -166 110 -3 c98 -2 115 0
155 20 140 71 137 257 -5 320 -69 31 -224 38 -246 12z m220 -39 c53 -27 81
-71 81 -126 0 -104 -47 -143 -175 -143 l-80 -1 -3 143 -3 142 76 0 c47 0 87
-6 104 -15z"/>
<path d="M6746 2688 c-9 -28 -15 -334 -7 -347 5 -8 16 -11 25 -8 15 6 16 28
14 183 -2 131 -6 178 -15 182 -7 2 -15 -2 -17 -10z"/>
<path d="M6992 2688 c-19 -19 -17 -312 3 -328 29 -24 35 0 35 130 0 71 4 131
9 134 5 3 22 -10 38 -29 15 -19 40 -50 56 -69 15 -18 27 -37 27 -41 0 -5 17
-31 38 -59 20 -28 42 -60 48 -71 8 -15 22 -20 50 -20 l39 0 2 145 c2 173 -2
200 -28 200 -18 0 -19 -9 -19 -140 0 -155 -9 -173 -50 -102 -25 43 -73 109
-112 157 -16 18 -28 37 -28 43 0 15 -59 62 -79 62 -9 0 -22 -5 -29 -12z"/>
<path d="M7620 2679 c-59 -34 -98 -87 -106 -145 -7 -62 10 -107 59 -157 64
-64 186 -70 246 -13 33 32 39 32 43 4 2 -13 10 -23 18 -23 12 0 15 16 15 85
l0 85 -97 3 c-80 2 -98 0 -98 -12 0 -19 22 -26 85 -26 30 0 56 -4 59 -8 10
-17 -27 -70 -65 -92 -49 -27 -100 -24 -155 11 -43 26 -64 71 -64 136 0 56 3
62 54 102 33 27 47 31 98 31 69 0 91 -10 135 -59 24 -27 34 -33 43 -25 9 9 9
17 -1 35 -40 77 -188 114 -269 68z"/>
<path d="M8428 2670 c-62 -41 -85 -105 -72 -203 6 -40 14 -56 46 -87 69 -66
157 -76 232 -25 45 30 52 31 59 5 7 -27 35 -25 42 3 3 12 5 52 3 87 l-3 65
-89 3 c-104 3 -124 -1 -106 -23 9 -10 32 -15 76 -15 55 0 64 -3 64 -18 0 -21
-54 -73 -93 -90 -39 -17 -61 -15 -110 8 -92 43 -111 174 -36 249 28 29 36 31
99 31 66 0 69 -1 118 -45 27 -25 53 -45 56 -45 17 0 2 50 -21 71 -54 49 -79
59 -151 59 -60 0 -75 -4 -114 -30z"/>
<path d="M8926 2689 c-2 -8 -7 -90 -10 -182 -5 -145 -4 -168 9 -174 9 -3 19
-2 23 2 4 3 9 79 12 167 l5 161 90 -2 c79 -1 92 -4 108 -23 35 -41 -5 -108
-64 -108 -15 0 -30 -4 -33 -9 -3 -5 13 -37 37 -71 23 -35 47 -72 54 -83 14
-25 33 -37 56 -37 25 0 14 35 -22 75 -42 47 -64 86 -54 96 6 6 25 18 44 28 32
17 34 21 34 72 0 53 -1 54 -39 73 -52 25 -243 37 -250 15z"/>
<path d="M9492 2679 c-53 -27 -78 -58 -97 -123 -20 -67 -5 -126 46 -177 76
-76 237 -74 302 5 65 78 73 150 25 222 -61 89 -180 120 -276 73z m206 -62 c40
-40 42 -46 42 -101 0 -72 -10 -90 -68 -127 -54 -34 -97 -37 -151 -9 -102 52
-120 175 -36 249 32 28 42 31 103 31 67 0 69 -1 110 -43z"/>
<path d="M10252 2688 c-8 -8 -12 -55 -12 -139 l0 -127 -31 -31 c-46 -46 -107
-42 -166 12 -21 19 -23 29 -23 143 0 122 -8 150 -33 125 -8 -8 -12 -56 -12
-136 l0 -125 35 -35 c62 -61 186 -66 243 -9 30 30 37 68 37 205 0 76 -4 110
-13 118 -10 8 -17 7 -25 -1z"/>
<path d="M10486 2684 c-3 -9 -6 -90 -6 -180 0 -138 2 -166 15 -170 8 -4 22 0
31 7 12 10 15 33 14 118 -1 58 -2 127 -1 154 l1 47 88 0 c55 0 92 -4 100 -12
7 -7 12 -32 12 -56 0 -40 -3 -44 -35 -58 -19 -7 -48 -14 -65 -14 -16 0 -30 -4
-30 -10 0 -16 96 -11 134 7 74 35 72 120 -3 160 -38 20 -59 23 -147 23 -84 0
-103 -3 -108 -16z"/>
<path d="M5767 2453 c-4 -3 -7 -13 -7 -20 0 -23 94 -13 98 10 3 14 -4 17 -41
17 -24 0 -47 -3 -50 -7z"/>
<path d="M5204 2066 c-3 -7 -4 -35 -2 -62 l3 -49 740 -5 c407 -3 1588 -3 2625
0 l1885 5 0 60 0 60 -2623 3 c-2221 2 -2623 0 -2628 -12z"/>
<path d="M6599 1759 c-6 -3 -8 -102 -7 -240 l3 -234 70 0 70 0 2 35 c8 100 15
160 21 160 4 0 49 -38 101 -85 52 -47 100 -85 107 -85 16 0 94 77 94 93 0 7
-41 55 -91 106 -50 50 -89 94 -87 97 3 2 38 8 79 12 l74 7 3 68 c2 49 -1 67
-10 69 -34 5 -421 2 -429 -3z"/>
<path d="M8815 1760 l-190 -5 0 -65 0 -65 70 -5 c62 -4 70 -7 67 -24 -2 -11
-39 -55 -83 -98 -43 -43 -79 -85 -79 -93 0 -16 76 -95 92 -95 6 0 52 38 103
85 51 47 97 85 102 85 6 0 13 -41 17 -92 4 -50 9 -95 12 -100 3 -4 34 -8 69
-8 48 0 64 4 69 16 3 9 6 113 6 233 0 228 -3 243 -44 239 -12 -1 -106 -5 -211
-8z"/>
<path d="M7760 1537 c0 -246 -6 -317 -26 -317 -7 0 -52 38 -100 85 -48 47 -90
85 -94 85 -9 0 -100 -86 -100 -94 0 -3 29 -34 64 -68 341 -336 313 -311 336
-295 38 27 370 351 370 362 0 12 -83 95 -96 95 -5 0 -50 -38 -99 -85 -50 -46
-96 -85 -102 -85 -10 0 -13 63 -15 268 l-3 267 -67 3 -68 3 0 -224z"/>
<path d="M8293 1118 c-83 -75 -155 -144 -314 -300 -77 -76 -147 -138 -156
-138 -12 0 -172 153 -463 445 -47 47 -70 45 -115 -9 -44 -55 -45 -54 67 -160
46 -43 176 -170 290 -282 114 -112 214 -204 224 -204 9 0 79 62 156 138 189
185 267 261 376 364 51 48 92 91 92 95 0 13 -60 82 -80 93 -16 8 -29 1 -77
-42z"/>
</g>
</svg>
